<?xml version="1.0" encoding="UTF-8" standalone="no"?>
<svg width="1064px" height="417px" viewBox="0 0 1064 417" version="1.1" xmlns="http://www.w3.org/2000/svg" xmlns:xlink="http://www.w3.org/1999/xlink">
    <!-- Generator: Sketch 46.2 (44496) - http://www.bohemiancoding.com/sketch -->
    <title>Havven Vector</title>
    <desc>Created with Sketch.</desc>
    <defs></defs>
    <g id="Page-1" stroke="none" stroke-width="1" fill="none" fill-rule="evenodd">
        <g id="Havven-Vector" fill="#FFFFFF">
            <path d="M459.967487,0 L525.411797,162.827147 L592.593805,0 L631,0 L525.411797,252 L421,0 L459.967487,0 Z M459.967487,159 L525.411797,321.827147 L592.593805,159 L631,159 L525.411797,411 L421,159 L459.967487,159 Z M0.259765625,159.272461 L36.9736328,159.272461 L36.9736328,254.135742 L139.771484,254.135742 L139.771484,159.272461 L176.861328,159.272461 L176.861328,400.69043 L139.771484,400.69043 L139.771484,288.634766 L36.9736328,288.634766 L36.9736328,400.69043 L0.259765625,400.69043 L0.259765625,161.342773 L0.259765625,159.272461 Z M206.794922,400.371094 L325.767578,144.863281 L440.552734,400.371094 L401.265625,400.371094 L376.306641,342.787109 L272.703125,342.787109 L246.179688,400.371094 L206.794922,400.371094 Z M288.15625,307.792969 L360.869141,307.792969 L325.748047,224.376953 L288.15625,307.792969 Z M670.398438,159.728516 L803.121094,159.728516 L803.121094,193.584961 L706.260742,193.584961 L706.260742,251.415039 L800.301758,251.415039 L800.301758,286.423828 L706.260742,286.423828 L706.260742,366.068359 L803.121094,366.068359 L803.121094,400.666992 L670.398438,400.666992 L670.398438,159.728516 Z M851.9375,400.263672 L851.9375,143.236328 L1026.95508,326.84375 L1026.95508,158.882812 L1063.89453,158.882812 L1063.89453,416.759766 L887.703125,232.845703 L887.703125,400.263672 L851.9375,400.263672 Z" id="Havven-Dark"></path>
        </g>
    </g>
</svg>