<?xml version="1.0" encoding="UTF-8" standalone="no"?>
<svg width="618px" height="358px" viewBox="0 0 618 358" version="1.1" xmlns="http://www.w3.org/2000/svg" xmlns:xlink="http://www.w3.org/1999/xlink">
    <!-- Generator: Sketch 47.1 (45422) - http://www.bohemiancoding.com/sketch -->
    <title>DIAGRAM 1.1</title>
    <desc>Created with Sketch.</desc>
    <defs>
        <path d="M9.08474576,2.07585886e-15 L18.1694915,2.07585886e-15 L258,2.07585886e-15 L258,1.77635684e-15 C263.522847,7.61826213e-16 268,4.4771525 268,10 L268,191 L268,191 C268,196.522847 263.522847,201 258,201 L10,201 L10,201 C4.4771525,201 6.76353751e-16,196.522847 0,191 L0,9.08474576 L0,9.08474576 C-6.14450187e-16,4.06737922 4.06737922,2.69803212e-15 9.08474576,1.77635684e-15 Z" id="path-1"></path>
        <path d="M57,2.07585886e-15 L71.3050847,2.07585886e-15 L258,2.07585886e-15 L258,1.77635684e-15 C263.522847,7.61826213e-16 268,4.4771525 268,10 L268,191 L268,191 C268,196.522847 263.522847,201 258,201 L57,201 L57,2.07585886e-15 Z" id="path-2"></path>
        <path d="M198,66 L272,66 L272,66 C274.209139,66 276,67.790861 276,70 L276,133 L276,133 C276,135.209139 274.209139,137 272,137 L198,137 L198,137 C189.715729,137 183,130.284271 183,122 L183,81 L183,81 C183,72.7157288 189.715729,66 198,66 Z" id="path-3"></path>
    </defs>
    <g id="Page-1" stroke="none" stroke-width="1" fill="none" fill-rule="evenodd">
        <g id="White-Paper-Diagrams" transform="translate(-286.000000, -1462.000000)">
            <g id="Havven-Diagram-3-WHITE" transform="translate(286.000000, 1064.000000)">
                <g id="DIAGRAM-1.1" transform="translate(0.000000, 398.000000)">
                    <path d="M226.5,0.5 L240.5,0.5 L240.5,0.5 C241.604569,0.5 242.5,1.3954305 242.5,2.5 L242.5,205.5 L242.5,205.5 C242.5,206.604569 241.604569,207.5 240.5,207.5 L226.5,207.5" id="Path-15" stroke="#171923" stroke-width="1.5" transform="translate(234.500000, 104.000000) rotate(-90.000000) translate(-234.500000, -104.000000) "></path>
                    <path d="M92.2625,76.7375 L106.2625,76.7375 L106.2625,76.7375 C107.367069,76.7375 108.2625,77.6329305 108.2625,78.7375 L108.2625,129.2625 L108.2625,129.2625 C108.2625,130.367069 107.367069,131.2625 106.2625,131.2625 L92.2625,131.2625" id="Path-15" stroke="#171923" stroke-width="1.5" transform="translate(100.262500, 104.000000) rotate(-90.000000) translate(-100.262500, -104.000000) "></path>
                    <g id="Ethers" transform="translate(449.000000, 148.000000)">
                        <ellipse id="Oval" stroke="#171923" fill="#ECF0F1" fill-rule="nonzero" stroke-linecap="round" stroke-linejoin="round" cx="43.5" cy="118.716749" rx="43.5" ry="24.362069"></ellipse>
                        <path d="M3.98820761e-14,114.55665 L0,129.768171 C0,143.17645 19.488,154 43.5,154 C67.512,154 87,143.17645 87,129.768171 L87,114.55665 C87,127.964929 67.512,138.788479 43.5,138.788479 C19.488,138.788479 3.98820761e-14,127.964929 3.98820761e-14,114.55665 Z" id="Shape" stroke="#171923" stroke-width="2" fill="#7F7F7F" fill-rule="nonzero" stroke-linecap="round" stroke-linejoin="round"></path>
                        <path d="M3.98820761e-14,129.55665 L0,144.768171 C0,158.17645 19.488,169 43.5,169 C67.512,169 87,158.17645 87,144.768171 L87,129.55665 C87,142.964929 67.512,153.788479 43.5,153.788479 C19.488,153.788479 3.98820761e-14,142.964929 3.98820761e-14,129.55665 Z" id="Shape" stroke="#171923" stroke-width="2" fill="#7F7F7F" fill-rule="nonzero" stroke-linecap="round" stroke-linejoin="round"></path>
                        <ellipse id="Oval" stroke="#FFFFFF" fill="#6A7EB3" fill-rule="nonzero" stroke-linecap="round" stroke-linejoin="round" cx="43.5" cy="102.475369" rx="43.5" ry="24.362069"></ellipse>
                        <path d="M3.98820761e-14,99.08867 L0,114.30019 C0,127.708469 19.488,138.53202 43.5,138.53202 C67.512,138.53202 87,127.708469 87,114.30019 L87,99.08867 C87,112.496949 67.512,123.320499 43.5,123.320499 C19.488,123.320499 3.98820761e-14,112.496949 3.98820761e-14,99.08867 Z" id="Shape" stroke="#171923" stroke-width="2" fill="#7F7F7F" fill-rule="nonzero" stroke-linecap="round" stroke-linejoin="round"></path>
                        <ellipse id="Oval" stroke="#434A54" fill="#ECF0F1" fill-rule="nonzero" stroke-linecap="round" stroke-linejoin="round" cx="43.5" cy="87.0073892" rx="43.5" ry="24.362069"></ellipse>
                        <path d="M3.98820761e-14,83.6206897 C3.98820761e-14,97.0289685 19.488,107.852519 43.5,107.852519 C67.512,107.852519 87,97.0289685 87,83.6206897 L87,98.8322102 C87,112.240489 67.512,123.064039 43.5,123.064039 C19.488,123.064039 0,112.240489 0,98.8322102 L3.98820761e-14,83.6206897 Z" id="Shape" stroke="#171923" stroke-width="2" fill="#7F7F7F" fill-rule="nonzero" stroke-linecap="round" stroke-linejoin="round"></path>
                        <ellipse id="Oval" stroke="#FFFFFF" fill="#6A7EB3" fill-rule="nonzero" stroke-linecap="round" stroke-linejoin="round" cx="43.5" cy="71.5394089" rx="43.5" ry="24.362069"></ellipse>
                        <path d="M3.98820761e-14,68.3793103 L0,83.5908309 C0,96.9991097 19.488,107.82266 43.5,107.82266 C67.512,107.82266 87,96.9991097 87,83.5908309 L87,68.3793103 C87,81.7875892 67.512,92.6111396 43.5,92.6111396 C19.488,92.6111396 3.98820761e-14,81.7875892 3.98820761e-14,68.3793103 Z" id="Shape" stroke="#171923" stroke-width="2" fill="#7F7F7F" fill-rule="nonzero" stroke-linecap="round" stroke-linejoin="round"></path>
                        <ellipse id="Oval" stroke="#FFFFFF" fill="#17192A" fill-rule="nonzero" stroke-linecap="round" stroke-linejoin="round" cx="43.5" cy="54.5246305" rx="43.5" ry="24.362069"></ellipse>
                        <path d="M3.98820761e-14,53.91133 C3.98820761e-14,67.3196089 19.488,78.1431593 43.5,78.1431593 C67.512,78.1431593 87,67.3196089 87,53.91133 L87,69.1228506 C87,82.5311294 67.512,93.3546798 43.5,93.3546798 C19.488,93.3546798 0,82.5311294 0,69.1228506 L3.98820761e-14,53.91133 Z" id="Shape" stroke="#171923" stroke-width="2" fill="#7F7F7F" fill-rule="nonzero" stroke-linecap="round" stroke-linejoin="round"></path>
                        <ellipse id="Oval" stroke="#434A54" fill="#39838B" fill-rule="nonzero" stroke-linecap="round" stroke-linejoin="round" cx="43.5" cy="39.8300493" rx="43.5" ry="24.362069"></ellipse>
                        <path d="M3.98820761e-14,38.4433498 L0,53.6548703 C0,67.0631491 19.488,77.8866995 43.5,77.8866995 C67.512,77.8866995 87,67.0631491 87,53.6548703 L87,38.4433498 C87,51.8516286 67.512,62.675179 43.5,62.675179 C19.488,62.675179 3.98820761e-14,51.8516286 3.98820761e-14,38.4433498 Z" id="Shape" stroke="#171923" stroke-width="2" fill="#7F7F7F" fill-rule="nonzero" stroke-linecap="round" stroke-linejoin="round"></path>
                        <ellipse id="Oval" stroke="#171923" stroke-width="2" fill="#7F7F7F" fill-rule="nonzero" stroke-linecap="round" stroke-linejoin="round" cx="43.5" cy="24.362069" rx="43.5" ry="24.362069"></ellipse>
                        <g id="ETH" transform="translate(43.316799, 22.852333) rotate(15.000000) translate(-43.316799, -22.852333) translate(34.316799, 8.852333)" stroke="#171923">
                            <polygon id="Path-9" points="9.15625 1 17.3125 13.4317708 9.15625 17.2413793 1 13.4317708"></polygon>
                            <polygon id="Path-11" points="1.51796667 16.2754535 9.67421667 27.8764387 17.8304667 16.2754535 9.67421667 20.3699189"></polygon>
                            <path d="M8.85986248,0.954152594 L9.54464286,17.2413793" id="Path-20"></path>
                            <path d="M9.77678571,27.8023959 L9.3013486,19.9884661" id="Path-20"></path>
                            <polyline id="Path-21" points="0.822868842 13.4604204 9.31320803 10.3734678 17.3129582 13.1830189"></polyline>
                        </g>
                        <path d="M3.98820761e-14,23.2019704 L0,38.413491 C0,51.8217698 19.488,62.6453202 43.5,62.6453202 C67.512,62.6453202 87,51.8217698 87,38.413491 L87,23.2019704 C87,36.6102493 67.512,47.4337997 43.5,47.4337997 C19.488,47.4337997 3.98820761e-14,36.6102493 3.98820761e-14,23.2019704 Z" id="Shape" stroke="#171923" stroke-width="2" fill="#7F7F7F" fill-rule="nonzero" stroke-linecap="round" stroke-linejoin="round"></path>
                    </g>
                    <g id="Wallet" transform="translate(72.000000, 119.000000)">
                        <g id="Rectangle-4">
                            <use fill-opacity="0.514747509" fill="#52578E" fill-rule="evenodd" xlink:href="#path-1"></use>
                            <path stroke="#171923" stroke-width="2" d="M9.08474576,1 C4.61966397,1 1,4.61966397 1,9.08474576 L1,191 C1,195.970563 5.02943725,200 10,200 L258,200 C262.970563,200 267,195.970563 267,191 L267,10 C267,5.02943725 262.970563,1 258,1 L9.08474576,1 Z"></path>
                        </g>
                        <g id="Rectangle-4">
                            <use fill="#52578E" fill-rule="evenodd" xlink:href="#path-2"></use>
                            <path stroke="#171923" stroke-width="2" d="M58,1 L58,200 L258,200 C262.970563,200 267,195.970563 267,191 L267,10 C267,5.02943725 262.970563,1 258,1 L58,1 Z"></path>
                        </g>
                        <g id="Rectangle-4">
                            <use fill="#52578E" fill-rule="evenodd" xlink:href="#path-3"></use>
                            <path stroke="#171923" stroke-width="2" d="M198,67 C190.268014,67 184,73.2680135 184,81 L184,122 C184,129.731986 190.268014,136 198,136 L272,136 C273.656854,136 275,134.656854 275,133 L275,70 C275,68.3431458 273.656854,67 272,67 L198,67 Z"></path>
                        </g>
                        <rect id="Rectangle-4" stroke="#171923" stroke-width="2" x="201" y="87" width="31" height="31" rx="15.5"></rect>
                    </g>
                    <rect id="Rectangle-11" stroke="#171923" stroke-width="2" x="1" y="1" width="616" height="356" rx="6"></rect>
                    <text id="ESCROWED" font-family="Rubik-Regular, Rubik" font-size="15" font-weight="normal" fill="#171923">
                        <tspan x="191.6675" y="87">ESCROWED</tspan>
                    </text>
                    <text id="FREE" font-family="Rubik-Regular, Rubik" font-size="15" font-weight="normal" fill="#171923">
                        <tspan x="82" y="87">FREE</tspan>
                    </text>
                    <text id="11%" font-family="Rubik-Regular, Rubik" font-size="15" font-weight="normal" fill="#171923">
                        <tspan x="89.4325" y="150">11%</tspan>
                    </text>
                    <text id="89%" font-family="Rubik-Regular, Rubik" font-size="15" font-weight="normal" fill="#FFFFFF">
                        <tspan x="216.12" y="150">89%</tspan>
                    </text>
                    <text id="$40-ETH" font-family="Rubik-Regular, Rubik" font-size="15" font-weight="normal" fill="#171923">
                        <tspan x="462.955" y="133">$40 ETH</tspan>
                    </text>
                </g>
            </g>
        </g>
    </g>
</svg>