<?xml version="1.0" encoding="UTF-8" standalone="no"?>
<svg width="618px" height="358px" viewBox="0 0 618 358" version="1.1" xmlns="http://www.w3.org/2000/svg" xmlns:xlink="http://www.w3.org/1999/xlink">
    <!-- Generator: Sketch 47.1 (45422) - http://www.bohemiancoding.com/sketch -->
    <title>Havven Diagram 4 WHITE</title>
    <desc>Created with Sketch.</desc>
    <defs>
        <path d="M10,2.51994807e-15 L22.0774548,2.51994807e-15 L315.642458,2.51994807e-15 L315.642458,1.77635684e-15 C321.165306,7.61826213e-16 325.642458,4.4771525 325.642458,10 L325.642458,234 L325.642458,234 C325.642458,239.522847 321.165306,244 315.642458,244 L10,244 L10,244 C4.4771525,244 6.76353751e-16,239.522847 0,234 L0,10 L0,10 C-6.76353751e-16,4.4771525 4.4771525,1.01453063e-15 10,0 Z" id="path-1"></path>
        <path d="M87,2.51994807e-15 L103.17915,2.51994807e-15 L315.642458,2.51994807e-15 L315.642458,1.77635684e-15 C321.165306,7.61826213e-16 325.642458,4.4771525 325.642458,10 L325.642458,234 L325.642458,234 C325.642458,239.522847 321.165306,244 315.642458,244 L87,244 L87,2.51994807e-15 Z" id="path-2"></path>
        <path d="M237.709497,80.4492754 L331,80.4492754 L331,80.4492754 C333.209139,80.4492754 335,82.2401364 335,84.4492754 L335,163.086957 L335,163.086957 C335,165.296096 333.209139,167.086957 331,167.086957 L237.709497,167.086957 L237.709497,167.086957 C229.425226,167.086957 222.709497,160.371228 222.709497,152.086957 L222.709497,95.4492754 L222.709497,95.4492754 C222.709497,87.1650041 229.425226,80.4492754 237.709497,80.4492754 Z" id="path-3"></path>
    </defs>
    <g id="Page-1" stroke="none" stroke-width="1" fill="none" fill-rule="evenodd">
        <g id="White-Paper-Diagrams" transform="translate(-286.000000, -2437.000000)">
            <g id="Havven-Diagram-4-WHITE" transform="translate(286.000000, 2437.000000)">
                <g id="DIAGRAM-1.1">
                    <path d="M271,-54 L285,-54 L285,-54 C286.104569,-54 287,-53.1045695 287,-52 L287,175 L287,175 C287,176.104569 286.104569,177 285,177 L271,177" id="Path-15" stroke="#171923" stroke-width="1.5" transform="translate(279.000000, 61.500000) rotate(-90.000000) translate(-279.000000, -61.500000) "></path>
                    <path d="M108,18 L122,18 L122,18 C123.104569,18 124,18.8954305 124,20 L124,102 L124,102 C124,103.104569 123.104569,104 122,104 L108,104" id="Path-15" stroke="#171923" stroke-width="1.5" transform="translate(116.000000, 61.000000) rotate(-90.000000) translate(-116.000000, -61.000000) "></path>
                    <g id="Ethers" transform="translate(449.000000, 163.000000)">
                        <ellipse id="Oval" stroke="#171923" fill="#ECF0F1" fill-rule="nonzero" stroke-linecap="round" stroke-linejoin="round" cx="43.5" cy="118.716749" rx="43.5" ry="24.362069"></ellipse>
                        <path d="M3.98820761e-14,114.55665 L0,129.768171 C0,143.17645 19.488,154 43.5,154 C67.512,154 87,143.17645 87,129.768171 L87,114.55665 C87,127.964929 67.512,138.788479 43.5,138.788479 C19.488,138.788479 3.98820761e-14,127.964929 3.98820761e-14,114.55665 Z" id="Shape" stroke="#171923" stroke-width="2" fill="#7F7F7F" fill-rule="nonzero" stroke-linecap="round" stroke-linejoin="round"></path>
                        <ellipse id="Oval" stroke="#FFFFFF" fill="#6A7EB3" fill-rule="nonzero" stroke-linecap="round" stroke-linejoin="round" cx="43.5" cy="102.475369" rx="43.5" ry="24.362069"></ellipse>
                        <path d="M3.98820761e-14,99.08867 L0,114.30019 C0,127.708469 19.488,138.53202 43.5,138.53202 C67.512,138.53202 87,127.708469 87,114.30019 L87,99.08867 C87,112.496949 67.512,123.320499 43.5,123.320499 C19.488,123.320499 3.98820761e-14,112.496949 3.98820761e-14,99.08867 Z" id="Shape" stroke="#171923" stroke-width="2" fill="#7F7F7F" fill-rule="nonzero" stroke-linecap="round" stroke-linejoin="round"></path>
                        <ellipse id="Oval" stroke="#434A54" fill="#ECF0F1" fill-rule="nonzero" stroke-linecap="round" stroke-linejoin="round" cx="43.5" cy="87.0073892" rx="43.5" ry="24.362069"></ellipse>
                        <path d="M3.98820761e-14,83.6206897 C3.98820761e-14,97.0289685 19.488,107.852519 43.5,107.852519 C67.512,107.852519 87,97.0289685 87,83.6206897 L87,98.8322102 C87,112.240489 67.512,123.064039 43.5,123.064039 C19.488,123.064039 0,112.240489 0,98.8322102 L3.98820761e-14,83.6206897 Z" id="Shape" stroke="#171923" stroke-width="2" fill="#7F7F7F" fill-rule="nonzero" stroke-linecap="round" stroke-linejoin="round"></path>
                        <ellipse id="Oval" stroke="#FFFFFF" fill="#6A7EB3" fill-rule="nonzero" stroke-linecap="round" stroke-linejoin="round" cx="43.5" cy="71.5394089" rx="43.5" ry="24.362069"></ellipse>
                        <path d="M3.98820761e-14,68.3793103 L0,83.5908309 C0,96.9991097 19.488,107.82266 43.5,107.82266 C67.512,107.82266 87,96.9991097 87,83.5908309 L87,68.3793103 C87,81.7875892 67.512,92.6111396 43.5,92.6111396 C19.488,92.6111396 3.98820761e-14,81.7875892 3.98820761e-14,68.3793103 Z" id="Shape" stroke="#171923" stroke-width="2" fill="#7F7F7F" fill-rule="nonzero" stroke-linecap="round" stroke-linejoin="round"></path>
                        <ellipse id="Oval" stroke="#FFFFFF" fill="#17192A" fill-rule="nonzero" stroke-linecap="round" stroke-linejoin="round" cx="43.5" cy="54.5246305" rx="43.5" ry="24.362069"></ellipse>
                        <path d="M3.98820761e-14,53.91133 C3.98820761e-14,67.3196089 19.488,78.1431593 43.5,78.1431593 C67.512,78.1431593 87,67.3196089 87,53.91133 L87,69.1228506 C87,82.5311294 67.512,93.3546798 43.5,93.3546798 C19.488,93.3546798 0,82.5311294 0,69.1228506 L3.98820761e-14,53.91133 Z" id="Shape" stroke="#171923" stroke-width="2" fill="#7F7F7F" fill-rule="nonzero" stroke-linecap="round" stroke-linejoin="round"></path>
                        <ellipse id="Oval" stroke="#434A54" fill="#39838B" fill-rule="nonzero" stroke-linecap="round" stroke-linejoin="round" cx="43.5" cy="39.8300493" rx="43.5" ry="24.362069"></ellipse>
                        <path d="M3.98820761e-14,38.4433498 L0,53.6548703 C0,67.0631491 19.488,77.8866995 43.5,77.8866995 C67.512,77.8866995 87,67.0631491 87,53.6548703 L87,38.4433498 C87,51.8516286 67.512,62.675179 43.5,62.675179 C19.488,62.675179 3.98820761e-14,51.8516286 3.98820761e-14,38.4433498 Z" id="Shape" stroke="#171923" stroke-width="2" fill="#7F7F7F" fill-rule="nonzero" stroke-linecap="round" stroke-linejoin="round"></path>
                        <ellipse id="Oval" stroke="#171923" stroke-width="2" fill="#7F7F7F" fill-rule="nonzero" stroke-linecap="round" stroke-linejoin="round" cx="43.5" cy="24.362069" rx="43.5" ry="24.362069"></ellipse>
                        <g id="ETH" transform="translate(43.316799, 22.852333) rotate(15.000000) translate(-43.316799, -22.852333) translate(34.316799, 8.852333)" stroke="#171923">
                            <polygon id="Path-9" points="9.15625 1 17.3125 13.4317708 9.15625 17.2413793 1 13.4317708"></polygon>
                            <polygon id="Path-11" points="1.51796667 16.2754535 9.67421667 27.8764387 17.8304667 16.2754535 9.67421667 20.3699189"></polygon>
                            <path d="M8.85986248,0.954152594 L9.54464286,17.2413793" id="Path-20"></path>
                            <path d="M9.77678571,27.8023959 L9.3013486,19.9884661" id="Path-20"></path>
                            <polyline id="Path-21" points="0.822868842 13.4604204 9.31320803 10.3734678 17.3129582 13.1830189"></polyline>
                        </g>
                        <path d="M3.98820761e-14,23.2019704 L0,38.413491 C0,51.8217698 19.488,62.6453202 43.5,62.6453202 C67.512,62.6453202 87,51.8217698 87,38.413491 L87,23.2019704 C87,36.6102493 67.512,47.4337997 43.5,47.4337997 C19.488,47.4337997 3.98820761e-14,36.6102493 3.98820761e-14,23.2019704 Z" id="Shape" stroke="#171923" stroke-width="2" fill="#7F7F7F" fill-rule="nonzero" stroke-linecap="round" stroke-linejoin="round"></path>
                    </g>
                    <g id="Wallet" transform="translate(72.000000, 76.000000)">
                        <g id="Rectangle-4">
                            <use fill-opacity="0.514747509" fill="#52578E" fill-rule="evenodd" xlink:href="#path-1"></use>
                            <path stroke="#171923" stroke-width="2" d="M10,1 C5.02943725,1 1,5.02943725 1,10 L1,234 C1,238.970563 5.02943725,243 10,243 L315.642458,243 C320.613021,243 324.642458,238.970563 324.642458,234 L324.642458,10 C324.642458,5.02943725 320.613021,1 315.642458,1 L10,1 Z"></path>
                        </g>
                        <g id="Rectangle-4">
                            <use fill="#52578E" fill-rule="evenodd" xlink:href="#path-2"></use>
                            <path stroke="#171923" stroke-width="2" d="M88,1 L88,243 L315.642458,243 C320.613021,243 324.642458,238.970563 324.642458,234 L324.642458,10 C324.642458,5.02943725 320.613021,1 315.642458,1 L88,1 Z"></path>
                        </g>
                        <g id="Rectangle-4">
                            <use fill="#52578E" fill-rule="evenodd" xlink:href="#path-3"></use>
                            <path stroke="#171923" stroke-width="2" d="M237.709497,81.4492754 C229.977511,81.4492754 223.709497,87.7172889 223.709497,95.4492754 L223.709497,152.086957 C223.709497,159.818943 229.977511,166.086957 237.709497,166.086957 L331,166.086957 C332.656854,166.086957 334,164.743811 334,163.086957 L334,84.4492754 C334,82.7924211 332.656854,81.4492754 331,81.4492754 L237.709497,81.4492754 Z"></path>
                        </g>
                        <rect id="Rectangle-4" stroke="#171923" stroke-width="2" x="243.360335" y="105.318841" width="38" height="38" rx="19"></rect>
                    </g>
                    <rect id="Rectangle-11" stroke="#171923" stroke-width="2" x="1" y="1" width="616" height="356" rx="6"></rect>
                    <text id="ESCROWED" font-family="Rubik-Regular, Rubik" font-size="15" font-weight="normal" fill="#171923">
                        <tspan x="230.6675" y="45">ESCROWED</tspan>
                    </text>
                    <text id="FREE" font-family="Rubik-Regular, Rubik" font-size="15" font-weight="normal" fill="#171923">
                        <tspan x="98" y="45">FREE</tspan>
                    </text>
                    <text id="20%" font-family="Rubik-Regular, Rubik" font-size="15" font-weight="normal" fill="#171923">
                        <tspan x="101.68" y="102">20%</tspan>
                    </text>
                    <text id="80%" font-family="Rubik-Regular, Rubik" font-size="15" font-weight="normal" fill="#FFFFFF">
                        <tspan x="251.805" y="102">80%</tspan>
                    </text>
                    <text id="$38.20-ETH" font-family="Rubik-Regular, Rubik" font-size="15" font-weight="normal" fill="#171923">
                        <tspan x="451.595" y="148">$38.20 ETH</tspan>
                    </text>
                </g>
            </g>
        </g>
    </g>
</svg>