<?xml version="1.0" encoding="UTF-8" standalone="no"?>
<svg
   xmlns:dc="http://purl.org/dc/elements/1.1/"
   xmlns:cc="http://creativecommons.org/ns#"
   xmlns:rdf="http://www.w3.org/1999/02/22-rdf-syntax-ns#"
   xmlns:svg="http://www.w3.org/2000/svg"
   xmlns="http://www.w3.org/2000/svg"
   xmlns:xlink="http://www.w3.org/1999/xlink"
   xmlns:sodipodi="http://sodipodi.sourceforge.net/DTD/sodipodi-0.dtd"
   xmlns:inkscape="http://www.inkscape.org/namespaces/inkscape"
   width="335"
   height="285.90576"
   viewBox="0 0 335 285.90576"
   version="1.1"
   id="svg33"
   sodipodi:docname="wallet.svg"
   inkscape:version="0.92.2 (5c3e80d, 2017-08-06)">
  <metadata
     id="metadata37">
    <rdf:RDF>
      <cc:Work
         rdf:about="">
        <dc:format>image/svg+xml</dc:format>
        <dc:type
           rdf:resource="http://purl.org/dc/dcmitype/StillImage" />
      </cc:Work>
    </rdf:RDF>
  </metadata>
  <sodipodi:namedview
     pagecolor="#ffffff"
     bordercolor="#666666"
     borderopacity="1"
     objecttolerance="10"
     gridtolerance="10"
     guidetolerance="10"
     inkscape:pageopacity="0"
     inkscape:pageshadow="2"
     inkscape:window-width="1100"
     inkscape:window-height="788"
     id="namedview35"
     showgrid="false"
     inkscape:zoom="1.0161812"
     inkscape:cx="160.08385"
     inkscape:cy="104.34851"
     inkscape:window-x="0"
     inkscape:window-y="22"
     inkscape:window-maximized="0"
     inkscape:current-layer="svg33" />
  <!-- Generator: Sketch 47.1 (45422) - http://www.bohemiancoding.com/sketch -->
  <title
     id="title2">Havven Diagram 1 WHITE</title>
  <desc
     id="desc4">Created with Sketch.</desc>
  <defs
     id="defs8">
    <path
       d="M 10,0 H 22.077455 315.64246 v 0 c 5.52285,0 10,4.4771525 10,10 v 224 0 c 0,5.52285 -4.47715,10 -10,10 H 10 v 0 C 4.4771525,244 0,239.52285 0,234 V 10 10 C 0,4.4771525 4.4771525,0 10,0 Z"
       id="path-1"
       inkscape:connector-curvature="0" />
    <path
       d="M 237.7095,80.449275 H 331 v 0 c 2.20914,0 4,1.790861 4,4 v 78.637685 0 c 0,2.20914 -1.79086,4 -4,4 h -93.2905 v 0 c -8.28427,0 -15,-6.71573 -15,-15 v -56.637685 0 c 0,-8.284271 6.71573,-15 15,-15 z"
       id="path-2"
       inkscape:connector-curvature="0" />
  </defs>
  <g
     id="Page-1"
     style="fill:none;fill-rule:evenodd;stroke:none;stroke-width:1"
     transform="translate(-5.0828,-5.5560383)">
    <g
       id="White-Paper-Diagrams"
       transform="translate(-352.9172,-1978.5382)">
      <g
         id="Havven-Diagram-1-WHITE"
         transform="translate(286,1950)">
        <g
           id="DIAGRAM-1.1">
          <path
             d="m 230,-101 h 8 v 0 c 1.10457,0 2,0.89543 2,2 v 315 0 c 0,1.10457 -0.89543,2 -2,2 h -8"
             id="Path-15"
             transform="rotate(-90,235,58.5)"
             inkscape:connector-curvature="0"
             style="stroke:#171923;stroke-width:1.5" />
          <g
             id="Wallet"
             transform="translate(72,76)">
            <g
               id="Rectangle-4">
              <use
                 xlink:href="#path-1"
                 id="use11"
                 style="fill:#52578e;fill-opacity:0.51474753;fill-rule:evenodd"
                 x="0"
                 y="0"
                 width="100%"
                 height="100%" />
              <path
                 d="M 10,1 C 5.0294372,1 1,5.0294372 1,10 v 224 c 0,4.97056 4.0294372,9 9,9 h 305.64246 c 4.97056,0 9,-4.02944 9,-9 V 10 c 0,-4.9705628 -4.02944,-9 -9,-9 z"
                 id="path13"
                 inkscape:connector-curvature="0"
                 style="stroke:#171923;stroke-width:2" />
            </g>
            <g
               id="g20">
              <use
                 xlink:href="#path-2"
                 id="use16"
                 style="fill:#a6a9c5;fill-rule:evenodd"
                 x="0"
                 y="0"
                 width="100%"
                 height="100%" />
              <path
                 d="m 237.7095,81.449275 c -7.73199,0 -14,6.268014 -14,14 v 56.637685 c 0,7.73198 6.26801,14 14,14 H 331 c 1.65685,0 3,-1.34315 3,-3 V 84.449275 c 0,-1.656854 -1.34315,-3 -3,-3 z"
                 id="path18"
                 inkscape:connector-curvature="0"
                 style="stroke:#171923;stroke-width:2" />
            </g>
            <rect
               id="rect22"
               x="243.36034"
               y="105.31884"
               width="38"
               height="38"
               rx="19"
               style="stroke:#171923;stroke-width:2" />
          </g>
          <text
             id="FREE"
             font-size="15"
             font-weight="normal"
             style="font-weight:normal;font-size:15px;font-family:Rubik-Regular, Rubik;fill:#171923">
            <tspan
               x="206"
               y="45"
               id="tspan26">FREE</tspan>
          </text>
        </g>
      </g>
    </g>
  </g>
</svg>
